<?xml version="1.0" encoding="UTF-8" standalone="no"?>
<!DOCTYPE svg PUBLIC "-//W3C//DTD SVG 1.1//EN" "http://www.w3.org/Graphics/SVG/1.1/DTD/svg11.dtd">
<svg width="100%" height="100%" viewBox="0 0 600 800" version="1.1" xmlns="http://www.w3.org/2000/svg" xmlns:xlink="http://www.w3.org/1999/xlink" xml:space="preserve" xmlns:serif="http://www.serif.com/" style="fill-rule:evenodd;clip-rule:evenodd;stroke-linejoin:round;stroke-miterlimit:2;">
    <g transform="matrix(26.9968,0,0,26.9968,1.49392,1.12347)">
        <path d="M0.21,19.007C-0.066,18.573 -0.07,18.019 0.199,17.58L10.328,1.057C10.892,0.138 12.252,0.218 12.703,1.197L21.957,21.271C22.3,22.015 21.905,22.892 21.119,23.127L6.725,27.446C6.146,27.619 5.522,27.387 5.198,26.876L0.21,19.007ZM11.497,5.888C11.595,5.402 12.261,5.332 12.457,5.787L18.84,20.557C18.96,20.835 18.811,21.156 18.52,21.243L8.575,24.211C8.209,24.321 7.859,24.001 7.934,23.627L11.497,5.888Z" style="fill:rgb(45,55,72);"/>
    </g>
</svg>
