<?xml version="1.0" encoding="UTF-8" standalone="no"?>
<!DOCTYPE svg PUBLIC "-//W3C//DTD SVG 1.1//EN" "http://www.w3.org/Graphics/SVG/1.1/DTD/svg11.dtd">
<svg width="100%" height="100%" viewBox="0 0 4267 4267" version="1.1" xmlns="http://www.w3.org/2000/svg" xmlns:xlink="http://www.w3.org/1999/xlink" xml:space="preserve" xmlns:serif="http://www.serif.com/" style="fill-rule:evenodd;clip-rule:evenodd;stroke-linejoin:round;stroke-miterlimit:2;">
    <g transform="matrix(5.67947,0,0,5.67947,-865.609,840.698)">
        <g transform="matrix(0.769321,0,0,1.12107,116.25,-1100.93)">
            <rect x="497.153" y="1288.03" width="54.504" height="27.799" style="fill:rgb(0,71,109);"/>
        </g>
        <g transform="matrix(0.978611,0,0,1,13.7707,-938.807)">
            <path d="M625.032,1318.56C625.032,1315.46 622.46,1312.94 619.292,1312.94L414.652,1312.94C411.484,1312.94 408.913,1315.46 408.913,1318.56L408.913,1329.79C408.913,1332.89 411.484,1335.4 414.652,1335.4L619.292,1335.4C622.46,1335.4 625.032,1332.89 625.032,1329.79L625.032,1318.56Z" style="fill:rgb(0,71,109);"/>
        </g>
        <g transform="matrix(1,0,0,1.11823,0,-40.5348)">
            <g transform="matrix(1.11522,0,0,1.3917,-79.5528,-1403.26)">
                <path d="M814.157,1060.47C814.157,1048.57 800.665,1038.9 784.048,1038.9L289.963,1038.9C273.346,1038.9 259.855,1048.57 259.855,1060.47L259.855,1233.08C259.855,1244.99 273.346,1254.66 289.963,1254.66L784.048,1254.66C800.665,1254.66 814.157,1244.99 814.157,1233.08L814.157,1060.47Z" style="fill:rgb(0,71,109);"/>
            </g>
            <g transform="matrix(1.09068,0,0,1.10181,-51.3245,-1075.16)">
                <rect x="261.392" y="1037.31" width="523.628" height="222.504" style="fill:white;"/>
            </g>
        </g>
        <g transform="matrix(1,0,0,1,-1.18955,-944.704)">
            <circle cx="520.875" cy="1270.5" r="7.939" style="fill:white;"/>
        </g>
        <g transform="matrix(1,0,0,1,-40.0415,-1067.17)">
            <path d="M446.913,1264.25L446.913,1277.28L363.376,1242.2L363.376,1231.57L446.913,1196.35L446.913,1209.31L379.576,1236.99L446.913,1264.25Z" style="fill:rgb(0,71,109);fill-rule:nonzero;"/>
            <path d="M534.818,1214.81L534.818,1197.06L489.387,1197.06L489.387,1228.68L528.901,1228.68L528.901,1241.92L489.387,1241.92L489.387,1276.72L534.818,1276.72L534.818,1257.35L547.919,1257.35L547.919,1289.96L459.662,1289.96L459.662,1276.72L473.327,1276.72L473.327,1197.06L459.662,1197.06L459.662,1183.81L547.919,1183.81L547.919,1214.81L534.818,1214.81Z" style="fill:rgb(0,71,109);fill-rule:nonzero;"/>
            <g transform="matrix(1,0,0,1,12.5411,0)">
                <path d="M637.514,1211.64C637.514,1218.44 635.589,1224.16 631.739,1228.79C627.888,1233.41 622.511,1236.59 615.609,1238.33L634.345,1276.72L647.305,1276.72L647.305,1289.96L623.498,1289.96L600.042,1240.52L585.18,1240.52L585.18,1276.72L598.704,1276.72L598.704,1289.96L554.752,1289.96L554.752,1276.72L569.121,1276.72L569.121,1197.06L554.752,1197.06L554.752,1183.81L598.845,1183.81C612.509,1183.81 622.371,1186.04 628.428,1190.51C634.486,1194.97 637.514,1202.01 637.514,1211.64ZM620.962,1211.35C620.962,1206.42 619.412,1202.81 616.313,1200.51C613.214,1198.21 608.307,1197.06 601.592,1197.06L585.18,1197.06L585.18,1227.2L600.606,1227.2C607.509,1227.2 612.627,1226.01 615.961,1223.61C619.295,1221.21 620.962,1217.13 620.962,1211.35Z" style="fill:rgb(0,71,109);fill-rule:nonzero;"/>
            </g>
            <g transform="matrix(1,0,0,1,12.5411,0)">
                <path d="M742.817,1242.2L659.279,1277.28L659.279,1264.25L726.687,1236.99L659.279,1209.31L659.279,1196.35L742.817,1231.57L742.817,1242.2Z" style="fill:rgb(0,71,109);fill-rule:nonzero;"/>
            </g>
        </g>
    </g>
</svg>
