<?xml version="1.0" encoding="UTF-8" standalone="no"?>
<!DOCTYPE svg PUBLIC "-//W3C//DTD SVG 1.1//EN" "http://www.w3.org/Graphics/SVG/1.1/DTD/svg11.dtd">
<svg width="100%" height="100%" viewBox="0 0 4267 4267" version="1.1" xmlns="http://www.w3.org/2000/svg" xmlns:xlink="http://www.w3.org/1999/xlink" xml:space="preserve" xmlns:serif="http://www.serif.com/" style="fill-rule:evenodd;clip-rule:evenodd;stroke-linecap:round;stroke-linejoin:round;stroke-miterlimit:1.5;">
    <g transform="matrix(1.00128,0,0,1.29373,-0.39561,-102.973)">
        <path d="M3546.95,1070.91L3546.95,2553.1L3658.86,2553.1L3658.86,988.718L3546.95,1070.91Z" style="fill:rgb(248,248,248);stroke:black;stroke-width:0.86px;"/>
    </g>
    <g transform="matrix(1.00128,0,0,1.29373,-0.39561,-102.973)">
        <path d="M3130.95,2111.73L2164.59,2394.02L1213.18,2111.73L1213.18,1316.41L2164.59,1632.86L3130.95,1316.41L3130.95,2111.73Z" style="fill:rgb(248,248,248);stroke:black;stroke-width:0.86px;"/>
    </g>
    <g transform="matrix(1.00128,0,0,1.29373,-94.7288,-217.841)">
        <path d="M3695.38,2420.62L3815.63,2778.27L3695.38,3135.91L3575.13,2778.27L3695.38,2420.62Z" style="fill:rgb(248,248,248);stroke:black;stroke-width:0.86px;"/>
    </g>
    <g transform="matrix(1.11807,0,0,1.48327,-479.483,-357.901)">
        <path d="M2367.06,477.643L4029.36,1007.59L2367.06,1537.53L704.758,1007.59L2367.06,477.643Z" style="fill:rgb(248,248,248);stroke:black;stroke-width:0.76px;"/>
    </g>
</svg>
